<svg xmlns="http://www.w3.org/2000/svg" viewBox="0 0 86 86"><title>icon_employment_2</title><g id="圖層_2" data-name="圖層 2"><g id="About"><g id="About_Content"><g id="About_Content_Experience"><g id="icon_employment"><path d="M47.4,55.1l-3.6,2.3a1.8,1.8,0,0,1-1.9,0l-3.6-2.3a1.8,1.8,0,0,1-.8-1.5v-8a1.8,1.8,0,0,1,1.8-1.8h7.2a1.8,1.8,0,0,1,1.8,1.8v8A1.8,1.8,0,0,1,47.4,55.1Z" fill="#fff"/><path d="M26.2,13.6a5.2,5.2,0,0,1,4.6-2.9H55.1a5.2,5.2,0,0,1,5.1,5.1v3.6" fill="none" stroke="#fff" stroke-linecap="round" stroke-miterlimit="10" stroke-width="2"/><path d="M26.2,13.6" fill="none" stroke="#fff" stroke-miterlimit="10" stroke-width="2"/><path d="M25.7,15.8" fill="none" stroke="#fff" stroke-miterlimit="10" stroke-width="2"/><path d="M74.9,40.5V70.2a5.2,5.2,0,0,1-5.1,5.1H16.2a5.2,5.2,0,0,1-5.1-5.1V51.4" fill="none" stroke="#fff" stroke-linecap="round" stroke-miterlimit="10" stroke-width="2"/><path d="M63.9,23.7h4.9a6.1,6.1,0,0,1,6.1,6.1v2.4" fill="none" stroke="#fff" stroke-linecap="round" stroke-linejoin="round" stroke-width="2"/><line x1="54.7" y1="23.7" x2="58.5" y2="23.7" fill="none" stroke="#fff" stroke-linecap="round" stroke-linejoin="round" stroke-width="2"/><path d="M44.8,49.7l-1.7.3h0l-1.7-.3L10.9,40.4a5.7,5.7,0,0,1-4.1-5.8V25.6a6.1,6.1,0,0,1,6.1-6.1H73.1a6.1,6.1,0,0,1,6.1,6.1v9.1a6.1,6.1,0,0,1-4.3,5.8L57.3,45.9" fill="none" stroke="#fff" stroke-linecap="round" stroke-miterlimit="10" stroke-width="2"/><rect width="86" height="86" fill="none"/></g></g></g></g></g></svg>