<svg xmlns="http://www.w3.org/2000/svg" viewBox="0 0 86 86"><title>icon_education_1</title><g id="圖層_2" data-name="圖層 2"><g id="About"><g id="About_Content"><g id="About_Content_Experience"><g id="icon_education"><path d="M34.4,74.2c-1,.1-3-2.4-3-2.4s-.5-.4-.8,0-2.1,2.6-3.2,2.6-.5-.7-.5-1.1V63.4a5.9,5.9,0,0,0,4,1.5,6,6,0,0,0,3.8-1.3v9.6C34.7,73.6,34.8,74.2,34.4,74.2Z" fill="none" stroke="#fff" stroke-miterlimit="10" stroke-width="1.5"/><path d="M37.7,59.2A6.8,6.8,0,1,1,31,52.4,6.7,6.7,0,0,1,37.7,59.2Z" fill="#fff"/><rect x="74.5" y="48.3" width="6" height="21.23" rx="2.9" ry="2.9" fill="none" stroke="#fff" stroke-miterlimit="10" stroke-width="2"/><line x1="77.2" y1="44" x2="77.2" y2="32.5" fill="none" stroke="#fff" stroke-linecap="round" stroke-linejoin="round" stroke-width="2"/><path d="M20.2,55.4A5.9,5.9,0,0,1,19,52V40.2" fill="none" stroke="#fff" stroke-linecap="round" stroke-miterlimit="10" stroke-width="2"/><path d="M66.3,44.4V52c0,7.3-16.8,13.2-24.1,13.2h.8" fill="none" stroke="#fff" stroke-linecap="round" stroke-linejoin="round" stroke-width="2"/><path d="M19,40.2l16.3,7.9a14.5,14.5,0,0,0,12.6,0l18.5-9" fill="none" stroke="#fff" stroke-miterlimit="10" stroke-width="2"/><path d="M35.5,19.6a13.9,13.9,0,0,1,12.2,0l10.1,4.9" fill="none" stroke="#fff" stroke-linecap="round" stroke-miterlimit="10" stroke-width="2"/><line x1="27.7" y1="23.3" x2="29.1" y2="22.7" fill="none" stroke="#fff" stroke-linecap="round" stroke-miterlimit="10" stroke-width="2"/><path d="M11.1,24.8" fill="none" stroke="#fff" stroke-miterlimit="10" stroke-width="2"/><path d="M7,27.1l.5-.4" fill="none" stroke="#fff" stroke-linecap="round" stroke-linejoin="round" stroke-width="2"/><path d="M10.3,24.9,35.5,13a13.9,13.9,0,0,1,12.2,0L74.9,26.3a4.9,4.9,0,0,1,0,8.8l-8.6,4.2-18.5,9a14.5,14.5,0,0,1-12.6,0L19,40.2,8.2,35a4.8,4.8,0,0,1-2.7-4" fill="none" stroke="#fff" stroke-linecap="round" stroke-linejoin="round" stroke-width="2"/><rect width="86" height="86" fill="none"/></g></g></g></g></g></svg>